<svg width="70" height="70" viewBox="0 0 70 70" fill="none" xmlns="http://www.w3.org/2000/svg">
<rect width="70" height="70" rx="35" fill="white"/>
<path d="M41.4548 24.9375C42.8222 24.9375 44.159 24.5526 45.296 23.8315C46.433 23.1104 47.3192 22.0855 47.8425 20.8864C48.3658 19.6872 48.5028 18.3677 48.236 17.0947C47.9692 15.8217 47.3107 14.6524 46.3438 13.7346C45.3768 12.8168 44.1448 12.1918 42.8036 11.9386C41.4624 11.6854 40.0723 11.8153 38.8089 12.312C37.5455 12.8087 36.4657 13.6499 35.7059 14.7291C34.9462 15.8083 34.5407 17.0771 34.5407 18.375C34.5407 20.1155 35.2692 21.7847 36.5658 23.0154C37.8624 24.2461 39.6211 24.9375 41.4548 24.9375ZM41.4548 14.4375C42.2753 14.4375 43.0773 14.6684 43.7595 15.1011C44.4417 15.5337 44.9734 16.1487 45.2874 16.8682C45.6014 17.5877 45.6836 18.3794 45.5235 19.1432C45.3634 19.907 44.9683 20.6086 44.3882 21.1592C43.808 21.7099 43.0688 22.0849 42.2641 22.2368C41.4594 22.3888 40.6253 22.3108 39.8672 22.0128C39.1092 21.7148 38.4613 21.2101 38.0055 20.5626C37.5496 19.915 37.3063 19.1538 37.3063 18.375C37.3063 17.3307 37.7434 16.3292 38.5214 15.5908C39.2994 14.8523 40.3545 14.4375 41.4548 14.4375ZM56.7786 36.5006C56.6427 36.5597 55.1262 37.1853 52.4274 37.1853C49.2331 37.1853 44.384 36.3103 38.2006 32.5916C37.2098 35.3993 35.8608 38.0815 34.1835 40.5781C36.3568 41.1863 39.2538 42.2669 41.8327 44.135C46.1702 47.2609 48.3688 51.5484 48.3688 56.875C48.3688 57.2231 48.2231 57.5569 47.9638 57.8031C47.7045 58.0492 47.3528 58.1875 46.986 58.1875C46.6193 58.1875 46.2676 58.0492 46.0082 57.8031C45.7489 57.5569 45.6032 57.2231 45.6032 56.875C45.6032 47.25 37.0229 43.9294 32.4872 42.8509C32.3029 43.077 32.1139 43.3023 31.9203 43.5269C27.4838 48.6259 21.9318 51.2816 15.7621 51.2816C15.0603 51.2837 14.3588 51.2523 13.6602 51.1875C13.4787 51.1703 13.3024 51.1192 13.1416 51.0374C12.9808 50.9555 12.8385 50.8443 12.723 50.7103C12.4896 50.4395 12.379 50.0918 12.4157 49.7438C12.4524 49.3957 12.6333 49.0756 12.9185 48.8541C13.2038 48.6326 13.5701 48.5277 13.9368 48.5625C20.0742 49.1444 25.4072 46.8869 29.7861 41.8491C32.8191 38.3622 34.8426 34.0813 35.7968 31.0975C26.4605 25.7338 20.4499 30.0519 20.1894 30.2466C19.9019 30.4548 19.5399 30.5479 19.181 30.5058C18.8221 30.4638 18.4948 30.2899 18.2693 30.0215C18.0439 29.7531 17.9381 29.4116 17.9748 29.0701C18.0115 28.7286 18.1876 28.4144 18.4655 28.1947C18.5508 28.1291 20.6296 26.5694 24.1719 26.0072C27.3662 25.5019 32.4504 25.7228 38.544 29.6538C49.4082 36.6538 55.571 34.1316 55.6309 34.1053C55.7962 34.0335 55.9747 33.9933 56.1563 33.987C56.3379 33.9806 56.5191 34.0083 56.6895 34.0684C56.8598 34.1286 57.016 34.22 57.1492 34.3374C57.2823 34.4548 57.3898 34.596 57.4654 34.7528C57.5411 34.9097 57.5835 35.0791 57.5901 35.2515C57.5968 35.4239 57.5676 35.5959 57.5043 35.7575C57.4409 35.9192 57.3447 36.0675 57.2209 36.1939C57.0972 36.3202 56.9485 36.4222 56.7832 36.4941L56.7786 36.5006Z" fill="#EC5151"/>
</svg>
