<svg width="74" height="80" viewBox="0 0 74 80" fill="none" xmlns="http://www.w3.org/2000/svg">
<path d="M42.5312 18.8125C43.8987 18.8125 45.2354 18.4276 46.3724 17.7065C47.5094 16.9854 48.3956 15.9605 48.9189 14.7614C49.4423 13.5622 49.5792 12.2427 49.3124 10.9697C49.0456 9.69672 48.3871 8.5274 47.4202 7.60961C46.4532 6.69183 45.2213 6.06682 43.8801 5.8136C42.5389 5.56038 41.1487 5.69034 39.8853 6.18704C38.6219 6.68374 37.5421 7.52488 36.7824 8.60407C36.0226 9.68327 35.6171 10.9521 35.6171 12.25C35.6171 13.9905 36.3456 15.6597 37.6422 16.8904C38.9388 18.1211 40.6975 18.8125 42.5312 18.8125ZM42.5312 8.3125C43.3517 8.3125 44.1537 8.54343 44.8359 8.97609C45.5181 9.40875 46.0499 10.0237 46.3638 10.7432C46.6778 11.4627 46.76 12.2544 46.5999 13.0182C46.4398 13.782 46.0447 14.4836 45.4646 15.0342C44.8844 15.5849 44.1452 15.9599 43.3405 16.1118C42.5358 16.2638 41.7017 16.1858 40.9437 15.8878C40.1856 15.5898 39.5377 15.0851 39.0819 14.4376C38.6261 13.79 38.3828 13.0288 38.3828 12.25C38.3828 11.2057 38.8198 10.2042 39.5978 9.46577C40.3758 8.72735 41.431 8.3125 42.5312 8.3125ZM57.8551 30.3756C57.7191 30.4347 56.2026 31.0603 53.5038 31.0603C50.3095 31.0603 45.4604 30.1853 39.277 26.4666C38.2863 29.2743 36.9372 31.9565 35.2599 34.4531C37.4332 35.0613 40.3302 36.1419 42.9092 38.01C47.2466 41.1359 49.4452 45.4234 49.4452 50.75C49.4452 51.0981 49.2996 51.4319 49.0402 51.6781C48.7809 51.9242 48.4292 52.0625 48.0624 52.0625C47.6957 52.0625 47.344 51.9242 47.0846 51.6781C46.8253 51.4319 46.6796 51.0981 46.6796 50.75C46.6796 41.125 38.0993 37.8044 33.5637 36.7259C33.3793 36.952 33.1903 37.1773 32.9967 37.4019C28.5602 42.5009 23.0082 45.1566 16.8385 45.1566C16.1367 45.1587 15.4352 45.1273 14.7367 45.0625C14.5551 45.0453 14.3788 44.9942 14.218 44.9124C14.0572 44.8305 13.9149 44.7193 13.7994 44.5853C13.566 44.3145 13.4555 43.9668 13.4921 43.6188C13.5288 43.2707 13.7097 42.9506 13.9949 42.7291C14.2802 42.5076 14.6465 42.4027 15.0132 42.4375C21.1506 43.0194 26.4837 40.7619 30.8626 35.7241C33.8955 32.2372 35.919 27.9563 36.8732 24.9725C27.5369 19.6088 21.5263 23.9269 21.2658 24.1216C20.9784 24.3298 20.6164 24.4229 20.2574 24.3808C19.8985 24.3388 19.5712 24.1649 19.3457 23.8965C19.1203 23.6282 19.0145 23.2866 19.0512 22.9451C19.0879 22.6036 19.264 22.2894 19.5419 22.0697C19.6272 22.0041 21.706 20.4444 25.2483 19.8822C28.4426 19.3769 33.5268 19.5978 39.6204 23.5288C50.4847 30.5288 56.6474 28.0066 56.7073 27.9803C56.8726 27.9085 57.0511 27.8683 57.2327 27.862C57.4144 27.8556 57.5955 27.8833 57.7659 27.9434C57.9362 28.0036 58.0924 28.095 58.2256 28.2124C58.3587 28.3298 58.4662 28.471 58.5419 28.6278C58.6175 28.7847 58.6599 28.9541 58.6666 29.1265C58.6732 29.2989 58.644 29.4709 58.5807 29.6325C58.5174 29.7942 58.4211 29.9425 58.2974 30.0689C58.1736 30.1952 58.0249 30.2972 57.8597 30.3691L57.8551 30.3756Z" fill="#EC5151"/>
<path d="M11.66 63.62H4.56V67.48H10.16V69.32H4.56V75H2.4V61.8H11.66V63.62ZM16.0964 65V75H13.9364V65H16.0964ZM15.0764 63.36C14.5964 63.36 14.2231 63.2467 13.9564 63.02C13.7031 62.78 13.5764 62.44 13.5764 62C13.5764 61.56 13.7031 61.2267 13.9564 61C14.2231 60.76 14.5964 60.64 15.0764 60.64C15.5564 60.64 15.9231 60.76 16.1764 61C16.4297 61.2267 16.5564 61.56 16.5564 62C16.5564 62.44 16.4297 62.78 16.1764 63.02C15.9231 63.2467 15.5564 63.36 15.0764 63.36ZM22.1275 62.04V71.96C22.1275 72.4667 22.2542 72.8467 22.5075 73.1C22.7608 73.34 23.1008 73.46 23.5275 73.46C23.8742 73.46 24.1675 73.4067 24.4075 73.3C24.6608 73.18 24.8875 73.0267 25.0875 72.84L25.5275 74.36C25.2208 74.6267 24.8542 74.8333 24.4275 74.98C24.0008 75.1267 23.5342 75.2 23.0275 75.2C22.1475 75.2 21.4142 74.98 20.8275 74.54C20.2542 74.1 19.9675 73.36 19.9675 72.32V62.64L22.1275 62.04ZM25.3675 65V66.68H18.1475V65H25.3675Z" fill="#EC5151"/>
<path d="M38.193 61.8L32.493 68.22L32.273 68.16L29.033 71.84L28.793 69.58L35.593 61.8H38.193ZM29.853 61.8V75H27.693V61.8H29.853ZM33.013 66.5L38.313 75H35.793L31.313 67.74L33.013 66.5ZM43.7628 75.2C42.7895 75.2 41.9361 74.9933 41.2028 74.58C40.4695 74.1667 39.8961 73.5733 39.4828 72.8C39.0695 72.0133 38.8628 71.08 38.8628 70C38.8628 68.9067 39.0628 67.9733 39.4628 67.2C39.8761 66.4267 40.4428 65.8333 41.1628 65.42C41.8961 65.0067 42.7228 64.8 43.6428 64.8C44.5895 64.8 45.3961 65 46.0628 65.4C46.7295 65.8 47.2361 66.3533 47.5828 67.06C47.9428 67.7533 48.1228 68.5533 48.1228 69.46C48.1228 69.6867 48.1161 69.8933 48.1028 70.08C48.0895 70.2667 48.0761 70.4267 48.0628 70.56H40.2628V69.08H47.1028L46.0428 69.4C46.0428 68.7733 45.9428 68.2467 45.7428 67.82C45.5561 67.38 45.2828 67.0467 44.9228 66.82C44.5628 66.5933 44.1361 66.48 43.6428 66.48C43.0828 66.48 42.5961 66.62 42.1828 66.9C41.7828 67.1667 41.4761 67.5667 41.2628 68.1C41.0495 68.62 40.9428 69.26 40.9428 70.02C40.9428 70.78 41.0561 71.42 41.2828 71.94C41.5095 72.46 41.8361 72.8533 42.2628 73.12C42.6895 73.3867 43.1895 73.52 43.7628 73.52C44.3761 73.52 44.8828 73.3933 45.2828 73.14C45.6828 72.8733 45.9961 72.5133 46.2228 72.06L47.9428 72.82C47.7161 73.3133 47.3961 73.74 46.9828 74.1C46.5828 74.46 46.1095 74.7333 45.5628 74.92C45.0161 75.1067 44.4161 75.2 43.7628 75.2ZM54.9737 75.2C54.0004 75.2 53.1471 74.9933 52.4138 74.58C51.6804 74.1667 51.1071 73.5733 50.6938 72.8C50.2804 72.0133 50.0738 71.08 50.0738 70C50.0738 68.9067 50.2738 67.9733 50.6738 67.2C51.0871 66.4267 51.6538 65.8333 52.3738 65.42C53.1071 65.0067 53.9338 64.8 54.8538 64.8C55.8004 64.8 56.6071 65 57.2738 65.4C57.9404 65.8 58.4471 66.3533 58.7938 67.06C59.1538 67.7533 59.3338 68.5533 59.3338 69.46C59.3338 69.6867 59.3271 69.8933 59.3138 70.08C59.3004 70.2667 59.2871 70.4267 59.2738 70.56H51.4738V69.08H58.3138L57.2538 69.4C57.2538 68.7733 57.1538 68.2467 56.9538 67.82C56.7671 67.38 56.4938 67.0467 56.1338 66.82C55.7738 66.5933 55.3471 66.48 54.8538 66.48C54.2938 66.48 53.8071 66.62 53.3938 66.9C52.9938 67.1667 52.6871 67.5667 52.4738 68.1C52.2604 68.62 52.1538 69.26 52.1538 70.02C52.1538 70.78 52.2671 71.42 52.4938 71.94C52.7204 72.46 53.0471 72.8533 53.4738 73.12C53.9004 73.3867 54.4004 73.52 54.9737 73.52C55.5871 73.52 56.0938 73.3933 56.4938 73.14C56.8938 72.8733 57.2071 72.5133 57.4338 72.06L59.1538 72.82C58.9271 73.3133 58.6071 73.74 58.1938 74.1C57.7938 74.46 57.3204 74.7333 56.7738 74.92C56.2271 75.1067 55.6271 75.2 54.9737 75.2ZM61.9247 79.2V65H63.8447L63.9847 67.94L63.7247 67.62C63.9247 66.78 64.338 66.1 64.9647 65.58C65.6047 65.06 66.3714 64.8 67.2647 64.8C68.0647 64.8 68.7847 65.0067 69.4247 65.42C70.0647 65.8333 70.5647 66.4267 70.9247 67.2C71.298 67.9733 71.4847 68.9 71.4847 69.98C71.4847 71.0733 71.298 72.0133 70.9247 72.8C70.5514 73.5733 70.038 74.1667 69.3847 74.58C68.7447 74.9933 68.018 75.2 67.2047 75.2C66.3647 75.2 65.6514 74.9667 65.0647 74.5C64.4914 74.02 64.0847 73.42 63.8447 72.7L64.0847 72.34V79.2H61.9247ZM66.6847 73.48C67.498 73.48 68.138 73.1733 68.6047 72.56C69.0847 71.9467 69.3247 71.0933 69.3247 70C69.3247 68.9067 69.0914 68.0533 68.6247 67.44C68.1714 66.8267 67.538 66.52 66.7247 66.52C66.2047 66.52 65.7447 66.66 65.3447 66.94C64.9447 67.22 64.6314 67.62 64.4047 68.14C64.1914 68.66 64.0847 69.28 64.0847 70C64.0847 70.7067 64.1914 71.32 64.4047 71.84C64.618 72.36 64.918 72.7667 65.3047 73.06C65.6914 73.34 66.1514 73.48 66.6847 73.48Z" fill="black"/>
</svg>
